<svg enable-background="new 0 0 512 512" viewBox="0 0 512 512" xmlns="http://www.w3.org/2000/svg"><circle cx="256" cy="256" fill="#f9bd38" r="256"/><path d="m491.722 328.108h-311.357c-3.6 0-6.518-2.918-6.518-6.518v-206.416c0-3.6 2.918-6.518 6.518-6.518h311.356c3.6 0 6.518 2.918 6.518 6.518v206.416c.001 3.6-2.917 6.518-6.517 6.518z" fill="#32314b"/><path d="m287.83 328.335h93.786v39.518h-93.786z" fill="#32314b"/><path d="m287.83 327.67h93.786v19.759h-93.786z" fill="#27273d"/><path d="m474.235 315.581h-275.809c-3.189 0-5.774-2.585-5.774-5.774v-182.85c0-3.189 2.585-5.774 5.774-5.774h275.809c3.189 0 5.774 2.585 5.774 5.774v182.85c0 3.189-2.585 5.774-5.774 5.774z" fill="#7ccafd"/><path d="m480.011 260.225v49.582c0 3.188-2.584 5.772-5.772 5.772h-275.816c-3.188 0-5.772-2.584-5.772-5.772v-182.851c0-3.188 2.584-5.772 5.772-5.772h71.977c0 76.79 62.251 139.041 139.041 139.041z" fill="#41c2e5"/><path d="m387.903 392.895h-106.36c-6.915 0-12.521-5.606-12.521-12.521 0-6.915 5.606-12.521 12.521-12.521h106.36c6.915 0 12.521 5.606 12.521 12.521 0 6.915-5.606 12.521-12.521 12.521z" fill="#27273d"/><path d="m170.365 392.895h-111.697c-3.882 0-7.029-3.147-7.029-7.029v-14.297h125.753v14.297c.001 3.882-3.145 7.029-7.027 7.029z" fill="#27273d"/><path d="m179.029 380.041h-129.025c-7.524 0-13.623-6.099-13.623-13.623v-330.28c0-7.524 6.099-13.623 13.623-13.623h129.024c7.524 0 13.623 6.099 13.623 13.623v330.28c.001 7.524-6.098 13.623-13.622 13.623z" fill="#3e436d"/><g fill="#32314b"><path d="m36.381 226.151 26.093 35.454c3.884 5.277 5.979 11.657 5.979 18.21v40.73c0 7.908-3.049 15.511-8.513 21.227l-23.558 24.646v-140.267z"/><path d="m192.652 226.151-26.093 35.454c-3.884 5.277-5.979 11.657-5.979 18.21v40.73c0 7.908 3.049 15.511 8.513 21.227l23.558 24.646v-140.267z"/><path d="m140.609 47.57h-48.015c-5.159 0-9.564-3.724-10.421-8.811l-2.738-16.244h74.334l-2.738 16.244c-.858 5.087-5.263 8.811-10.422 8.811z"/></g><path d="m162.497 146.682h-94.607c-6.531 0-11.826-5.295-11.826-11.826v-55.75c0-6.531 5.295-11.826 11.826-11.826h94.607c6.531 0 11.826 5.295 11.826 11.826v55.751c0 6.531-5.295 11.825-11.826 11.825z" fill="#ac60fc"/><path d="m174.323 120.215v14.639c0 6.538-5.296 11.826-11.826 11.826h-94.607c-6.53 0-11.826-5.288-11.826-11.826v-55.751c0-6.53 5.296-11.826 11.826-11.826h19.707v41.112c0 6.53 5.296 11.826 11.826 11.826z" fill="#925adb"/><path d="m115.19 167.79c-20.41 0-37.02 16.61-37.02 37.02 0 20.42 16.61 37.03 37.02 37.03 20.42 0 37.03-16.61 37.03-37.03 0-20.41-16.61-37.02-37.03-37.02zm0 61.38c-13.43 0-24.35-10.93-24.35-24.36 0-11.24 7.65-20.72 18.02-23.51v21.67c0 3.5 2.83 6.33 6.33 6.33s6.34-2.83 6.34-6.33v-21.67c10.37 2.79 18.02 12.27 18.02 23.51 0 13.43-10.93 24.36-24.36 24.36z" fill="#fe4583"/><path d="m143.172 283.525h-55.957c-3.792 0-6.865-3.074-6.865-6.865 0-3.792 3.074-6.865 6.865-6.865h55.957c3.792 0 6.865 3.074 6.865 6.865.001 3.791-3.073 6.865-6.865 6.865z" fill="#32314b"/><path d="m143.172 308.195h-55.957c-3.792 0-6.865-3.074-6.865-6.865 0-3.792 3.074-6.865 6.865-6.865h55.957c3.792 0 6.865 3.074 6.865 6.865.001 3.791-3.073 6.865-6.865 6.865z" fill="#32314b"/><path d="m143.172 332.865h-55.957c-3.792 0-6.865-3.074-6.865-6.865 0-3.792 3.074-6.865 6.865-6.865h55.957c3.792 0 6.865 3.074 6.865 6.865.001 3.792-3.073 6.865-6.865 6.865z" fill="#32314b"/><path d="m473.06 391.78c-45.26 72.21-125.56 120.22-217.06 120.22s-171.8-48.01-217.06-120.22z" fill="#a85c3b"/></svg>